<svg width="399" height="75" viewBox="0 0 399 75" fill="none" xmlns="http://www.w3.org/2000/svg">
<path d="M26.2942 24.2031C32.9688 24.2523 39.7738 24.1433 46.4502 24.2243C52.0596 24.3404 58.6582 25.6238 62.6305 29.8953C67.3792 35.001 66.7704 43.8304 61.5712 48.4264C55.3154 53.9568 46.9254 53.4804 39.1247 53.5116C38.6327 53.5135 37.8084 53.3921 37.4695 53.0083C37.676 52.697 38.1784 52.58 38.5379 52.5703C43.5527 52.4353 48.1158 52.9236 52.7892 50.4502C55.8126 48.8725 58.0623 46.1307 59.0203 42.8576C60.4522 38.1113 59.4747 32.0445 55.6321 28.6701C53.9095 27.1571 52.4023 26.4998 50.2448 25.868C46.1776 24.8705 39.7725 25.2581 35.3445 25.2132L35.3432 57.1013C35.3432 59.7809 34.9888 69.6877 35.569 71.6116C36.4531 74.5416 40.0438 73.1019 42.0715 74.1845L42.0079 74.3377C41.6172 74.4896 40.2269 74.5532 39.8815 74.526C38.19 74.391 23.7205 74.8142 23.135 74.2962L23.1328 74.0534C24.1684 73.2252 29.5713 74.8557 29.5031 69.972C29.4714 67.7106 29.5158 64.9884 29.5154 62.6932L29.5117 48.0198L29.5109 35.0672C29.5121 32.9379 29.5619 30.7976 29.5061 28.6655C29.4272 25.6515 27.4744 25.0216 24.8506 24.9438C24.3564 24.9292 23.4495 24.8724 23.0945 24.4845C23.5452 24.1183 25.5815 24.2088 26.2942 24.2031Z" fill="#222222"/>
<path d="M27.1082 0.0499878C33.7595 -0.267023 41.7848 0.946498 48.1289 3.04459C48.2354 5.59846 48.6767 11.3754 48.4379 13.6424C47.6174 11.907 47.2228 10.311 46.1116 8.63214C41.7316 2.01618 33.3364 0.241335 25.8975 1.30427C6.69391 4.04807 1.33911 26.756 11.111 41.5081C15.5833 47.7441 20.2235 49.6564 27.1906 51.766C27.3686 52.2852 27.4027 52.0672 27.2752 52.4895C27.1211 52.5945 26.9516 52.6859 26.7578 52.6568C20.1921 51.6715 13.6988 49.3974 8.63076 45.111C-1.74545 36.4386 -2.93989 19.5523 5.99433 9.43336C11.6056 3.07795 18.8853 0.589374 27.1082 0.0499878Z" fill="#222222"/>
<path d="M366.194 19.5281C368 19.5189 369.808 19.4751 371.612 19.3967L371.769 19.6088C371.633 19.6411 371.494 19.6688 371.36 19.7057C370.722 19.8741 370.106 20.3723 369.808 20.9696C369.333 21.9221 369.621 40.6867 369.605 43.3805C366.418 39.1391 363.201 34.9231 359.956 30.7255C357.764 27.8472 355.241 24.3346 352.967 21.5831L352.972 34.6002C352.972 36.1939 353.041 40.064 352.857 41.5493C353.675 42.4718 354.487 42.5087 355.721 42.8455L349.376 42.7855C350.017 42.624 351.904 42.2158 351.922 41.3809C351.992 38.069 352.605 21.8368 351.625 20.2662C350.933 19.7311 350.675 19.7657 349.847 19.6896C350.559 19.4036 352.979 19.4682 353.869 19.4705C354.102 19.5097 354.333 19.5489 354.566 19.5881C358.05 24.0232 365.943 33.9752 368.828 37.9952C368.844 33.364 368.865 28.7351 368.877 24.1039C368.881 22.8193 369.089 21.2948 368.318 20.2685C367.474 19.8602 367.112 19.7795 366.194 19.5281Z" fill="#222222"/>
<path d="M168.76 24.6991C168.815 23.2645 169.051 21.7008 168.422 20.4692C167.83 19.9087 167.404 19.8188 166.645 19.5328C167.287 19.3713 170.855 19.542 171.799 19.5605L171.801 19.7058L171.531 19.7657C170.766 19.9479 170.462 19.941 169.938 20.5222C169.184 22.1274 169.667 34.8586 169.409 38.182C169.553 39.2706 169.52 41.946 169.536 43.1638C166.751 39.9372 163.736 35.7212 161.118 32.2985C158.478 28.8482 155.315 24.8928 152.935 21.3272C152.771 23.9356 152.601 40.1078 153.131 41.8053C153.785 42.435 154.687 42.5872 155.577 42.8478L149.461 42.8201C150.515 42.5157 151.35 42.3889 151.97 41.5055C152.347 39.3306 152.122 23.7142 151.78 20.5614C151.723 20.0402 149.634 19.5997 148.961 19.4336C150.733 19.5097 152.761 19.4751 154.553 19.4843C159.298 25.6539 163.901 31.7911 168.798 37.8591C168.6 33.9383 168.763 28.7121 168.76 24.6991Z" fill="#222222"/>
<path d="M340.654 19.4197L341.092 19.3967L341.154 19.6019C340.647 19.6919 339.288 20.0724 339.261 20.6052C339.074 24.0071 338.299 39.3375 339.318 41.803C340.121 42.4995 340.912 42.5779 341.961 42.8408C339.618 42.827 337.272 42.8293 334.929 42.8501L334.323 42.7278C335.077 42.4303 336.308 41.6923 336.278 40.8366C336.168 37.7415 336.938 22.0905 336.039 20.3377C335.363 19.7173 335.077 19.7588 334.212 19.6411C335.34 19.3944 339.293 19.4359 340.654 19.4197Z" fill="#222222"/>
<path d="M384.458 20.0141C385.736 19.971 387.26 19.9196 388.024 20.2201C388.023 20.6083 388.028 21.2896 388.034 22.1775L388.035 22.365L388.035 22.3895L388.037 22.6506C388.079 28.313 388.17 40.6985 387.6 41.8307C386.937 42.3502 386.258 42.5123 385.475 42.6994C385.312 42.7382 385.145 42.7781 384.973 42.8224L393.476 42.8247C393.317 42.786 393.16 42.751 393.003 42.7163C392.257 42.5506 391.55 42.3937 390.974 41.8883C390.334 40.623 390.449 35.1361 390.559 29.9305C390.649 25.6007 390.736 21.4652 390.381 20.1163C392.199 19.9295 393.944 19.9387 395.746 20.2547C397.381 20.9402 397.62 21.9073 397.971 23.3309V23.3309C398.046 23.6356 398.127 23.9633 398.227 24.3115C398.214 23.8353 398.239 23.3531 398.264 22.8792V22.8792C398.323 21.7493 398.38 20.6651 397.902 19.8188C397.219 19.4133 396.9 19.4265 396.273 19.4524C396.083 19.4603 395.865 19.4693 395.6 19.4682C393.527 19.3967 382.034 19.2745 380.448 19.6389C380.314 21.251 380.201 22.8655 380.104 24.4822C380.22 24.1355 380.319 23.8148 380.411 23.5167C380.924 21.8477 381.22 20.8875 383.181 20.0402C383.537 20.0452 383.981 20.0302 384.458 20.0141Z" fill="#222222"/>
<path d="M308.881 19.4221C309.071 19.4172 309.299 19.4102 309.554 19.4024C311.2 19.352 313.975 19.2671 315.055 19.4728C319.101 19.5605 323.533 21.2095 323.21 26.0367C323.109 27.5659 322.387 28.9866 321.211 29.9714C320.138 30.864 318.586 31.5397 317.177 31.5882L317.138 31.9179L317.431 32.1509C319.21 33.5898 320.15 35.4319 321.055 37.2083C322.248 39.5463 323.382 41.7703 326.296 42.8109L321.79 42.8432C321.112 41.9418 320.219 40.4513 319.262 38.8557C317.58 36.0504 315.703 32.9203 314.465 32.0955C313.501 31.9837 312.059 31.9634 310.842 31.9463C310.479 31.9412 310.136 31.9364 309.831 31.9295C309.829 32.2532 309.82 32.6882 309.81 33.1965C309.759 35.8789 309.667 40.6081 310.186 41.8607C310.829 42.3946 311.634 42.5701 312.469 42.7521C312.647 42.791 312.827 42.8301 313.007 42.8732C310.177 42.8178 307.345 42.8017 304.515 42.8201L307.131 41.9968C307.389 39.7758 307.407 21.8138 307.031 20.5268C306.406 19.9227 306.152 19.8684 305.532 19.7356C305.345 19.6955 305.124 19.6483 304.85 19.5766L308.881 19.4221ZM316.432 31.1591C320.148 29.7453 321.684 26.0736 319.684 22.395C318.766 20.7113 317.108 20.2754 315.323 19.9341C313.969 20.0171 311.121 20.0517 309.859 19.798C309.783 23.7073 309.774 27.6143 309.829 31.5236C310.161 31.5202 310.49 31.5185 310.816 31.5168C312.714 31.507 314.521 31.4977 316.432 31.1591Z" fill="#222222"/>
<path fill-rule="evenodd" clip-rule="evenodd" d="M282.831 19.4659C286.675 19.1868 291.694 18.9446 294.852 21.5485C297.472 23.7073 297.562 27.552 295.103 29.8952C292.182 32.6842 288.015 32.5641 284.182 32.4537C283.787 32.4423 283.395 32.431 283.008 32.423C283.113 33.9242 283.044 35.3346 282.974 36.7733C282.942 37.4233 282.91 38.0791 282.893 38.7517C282.815 41.9737 283.693 42.3381 286.44 42.8086C284.481 42.849 282.449 42.8418 280.445 42.8347C279.591 42.8317 278.74 42.8287 277.902 42.8293L280.363 41.9299C280.557 38.004 280.479 32.0804 280.409 26.8412C280.38 24.6227 280.352 22.5269 280.347 20.7574C280.346 20.3374 279.903 20.1742 279.41 19.9925C279.018 19.8479 278.594 19.6917 278.336 19.3852C278.976 19.5262 280.744 19.4971 281.973 19.4769C282.18 19.4734 282.373 19.4703 282.541 19.4682C282.599 19.4675 282.653 19.467 282.705 19.4665L282.752 19.4662L282.761 19.4662C282.785 19.466 282.808 19.4659 282.831 19.4659ZM283.068 19.9156C283.377 19.9111 283.692 19.9042 284.013 19.8973C288.59 19.7982 294.195 19.6768 294.01 25.9121C293.828 32.0033 287.45 32.257 283.036 31.9295C283.16 29.3224 283.126 26.1618 283.095 23.2241C283.082 22.0714 283.07 20.9529 283.068 19.9156Z" fill="#222222"/>
<path d="M253.941 40.9289C252.77 42.5434 249.898 42.6379 248.157 42.6656C243.643 42.0843 242.675 40.7951 241.076 36.6852L241.219 41.7499C242.197 41.9256 243.067 42.1768 243.922 42.4237C245.088 42.7604 246.227 43.0892 247.573 43.2076C251.194 43.5097 256.142 42.4811 257.235 38.3227C258.691 32.7781 254.362 31.125 250.168 29.5236C247.501 28.5051 244.888 27.5076 243.853 25.5431C241.282 20.6629 248.893 18.1397 252.551 20.2662C254.733 21.5272 255.274 23.1879 255.913 25.1481C255.985 25.3713 256.059 25.5983 256.137 25.8291C255.971 23.9195 255.929 22.1966 255.886 20.2777C250.858 18.7717 240.781 17.2679 241.282 25.8729C241.453 28.8145 245.017 30.3024 248.518 31.7641C253.207 33.7223 257.784 35.6333 253.941 40.9289Z" fill="#222222"/>
<path d="M220.112 19.053C217.997 23.4674 215.354 29.5147 213.523 34.0467C213.329 34.4825 213.111 34.9982 212.874 35.5571C211.933 37.7754 210.704 40.673 209.599 41.946L206.629 42.8317L212.443 42.827L212.575 42.4857L212.886 42.5964C212.643 42.4712 212.455 42.3876 212.304 42.3202C211.855 42.1198 211.728 42.0631 211.409 41.4778C211.525 39.9373 212.541 37.7757 213.331 36.0929C213.408 35.9289 213.483 35.7694 213.555 35.6156C213.609 35.4999 213.661 35.3873 213.711 35.2783C216.959 35.4421 221.23 35.5089 224.489 35.3682C225.433 36.2677 226.825 40.5668 227.187 41.9575L225.063 42.6956C225.823 42.8944 230.484 42.8481 232.598 42.8272V42.8272C232.936 42.8238 233.209 42.8211 233.391 42.8201C232.326 42.5272 231.576 42.2781 230.54 41.8953C229.98 41.0386 229.548 40.0969 229.121 39.1651C229.041 38.9906 228.962 38.8165 228.881 38.6433C227.521 35.7108 226.229 32.7472 224.937 29.7836V29.7836C223.369 26.1885 221.801 22.5927 220.112 19.053ZM214.056 34.4157C214.272 33.9087 214.49 33.3924 214.711 32.8699C216.102 29.5751 217.599 26.0311 219.214 22.9854C219.39 23.3827 219.643 23.9434 219.943 24.6085C221.348 27.7196 223.783 33.1153 224.197 34.7571C223.76 34.7447 222.945 34.7609 221.96 34.7805C219.085 34.8378 214.751 34.9241 214.056 34.4157Z" fill="#222222"/>
<path d="M195.26 36.7833V36.7833C194.757 37.969 194.367 38.8877 194.173 39.3629L194.059 39.1599C192.695 36.6875 186.036 22.3327 186.388 20.6075C186.449 20.3067 186.584 20.199 186.773 20.0486V20.0486C186.823 20.0088 186.877 19.9657 186.934 19.9156C187.015 19.9034 187.087 19.8937 187.152 19.8854C187.213 19.8777 187.269 19.8713 187.319 19.8654C187.663 19.8255 187.799 19.8097 188.212 19.5674C187.56 19.2434 182.861 19.4322 180.734 19.5176V19.5176C180.378 19.5319 180.095 19.5433 179.914 19.5489C180.036 19.575 180.165 19.6008 180.3 19.6277C181.342 19.8357 182.69 20.1045 183.14 21.0319C185.188 25.2505 187.044 29.6626 188.894 34.0589V34.0589C190.23 37.2354 191.564 40.4057 192.964 43.4867C193.042 43.3112 193.137 43.1044 193.24 42.8786V42.8786C193.664 41.9529 194.234 40.7086 194.421 40.0041C195.874 37.0948 197.106 34.0175 198.338 30.938C199.733 27.4527 201.129 23.9646 202.849 20.7137C203.165 20.1165 203.744 20.0516 204.311 19.988C204.744 19.9394 205.172 19.8915 205.47 19.6066L205.338 19.3737C205.15 19.3784 204.885 19.3826 204.569 19.3876C203.049 19.4117 200.373 19.4542 199.677 19.6643C199.733 19.6772 199.787 19.6894 199.839 19.7012C200.66 19.8875 200.964 19.9562 201.467 20.596C201.648 21.7308 197.414 31.708 195.26 36.7833Z" fill="#222222"/>
<path d="M128.585 19.0092C128.104 20.0517 127.712 21.0065 127.287 22.0674C126.012 24.5198 124.935 27.0862 123.861 29.6479V29.6479C123.088 31.4902 122.316 33.3303 121.472 35.1238C121.194 35.7138 120.941 36.3668 120.683 37.0345C119.803 39.3054 118.858 41.7472 116.636 42.4672C116.256 42.5895 115.875 42.7048 115.492 42.8155C117.828 42.8201 120.163 42.8432 122.499 42.8824C122.406 42.856 122.315 42.8314 122.226 42.8079C122.151 42.7883 122.077 42.7693 122.004 42.7507C121.245 42.5559 120.61 42.3931 120.14 41.7545C119.623 40.1723 120.489 38.5361 121.377 36.8568V36.8568C121.664 36.3136 121.954 35.7656 122.2 35.2137C123.674 35.4833 128.638 35.4565 131.549 35.4408V35.4408C132.15 35.4375 132.663 35.4347 133.04 35.4351C133.986 37.3344 134.696 39.1864 135.442 41.133C135.537 41.3801 135.632 41.6287 135.729 41.8791C134.964 42.1259 134.207 42.3934 133.456 42.6794C134.016 42.8774 138.449 42.9037 140.917 42.9184V42.9184C141.583 42.9223 142.108 42.9254 142.373 42.9308C142.064 42.8571 141.776 42.7965 141.506 42.7397C140.004 42.4235 139.063 42.2254 138.195 40.5322C137.193 38.5785 136.325 36.5781 135.455 34.5693C135.231 34.0525 135.006 33.5353 134.78 33.0181C132.742 28.3361 130.677 23.6658 128.585 19.0092ZM127.536 23.0038C128.858 25.1141 131.695 32.2293 132.72 34.8585C131.322 34.6556 126.909 34.7005 124.109 34.7289V34.7289C123.376 34.7364 122.753 34.7427 122.324 34.7432C123.3 32.7053 124.261 30.4787 125.224 28.2477V28.2477C125.99 26.472 126.759 24.6921 127.536 23.0038Z" fill="#222222"/>
<path d="M101.337 19.1593C99.7858 18.9702 97.9972 18.9449 96.4614 19.2539C89.3052 20.2895 84.808 25.9908 86.0687 33.2559C86.6017 36.4271 88.4216 39.2362 91.0975 41.0214C93.6862 42.7535 97.7984 43.7314 100.847 43.1709C102.631 43.0717 104.701 42.4177 106.522 41.8428C106.679 41.7932 106.834 41.7442 106.987 41.6963C107.08 41.6669 107.173 41.638 107.264 41.6095C107.328 40.035 107.498 38.6106 107.682 37.0641V37.0641L107.722 36.72C105.77 40.7608 104.708 42.0338 100.237 42.6935C90.3576 43.247 86.5627 33.2236 89.9012 25.3035C91.2499 22.1023 93.6163 20.7623 96.6824 19.676C98.3289 19.4846 99.5736 19.4868 101.235 19.6368C101.781 19.7821 102.323 19.9389 102.861 20.1119C105.38 20.9384 106.286 22.7414 107.359 24.8762C107.418 24.9931 107.477 25.1109 107.537 25.2297C107.371 24.1707 107.27 22.7118 107.181 21.4301C107.152 21.0177 107.125 20.6229 107.097 20.2664C105.018 19.782 103.446 19.4707 101.337 19.1593Z" fill="#222222"/>
<path d="M170.667 53.6789C179.554 53.2338 190.107 53.8289 199.059 53.6028C202 53.529 224.265 53.4691 225.047 53.8289L225.191 54.4216C219.997 54.703 172.279 54.7514 170.908 54.3178L170.667 53.6789Z" fill="#222222"/>
<path d="M258.904 53.7043C275.639 53.1023 292.812 53.9488 309.586 53.6097C310.546 53.5913 312.328 53.5359 313.207 53.7504L313.493 54.4446C308.355 54.5346 260.055 54.7468 259.017 54.2763L258.904 53.7043Z" fill="#222222"/>
<path d="M241.535 52.5534C242.065 52.392 242.642 52.5281 243.043 52.9109C243.444 53.2938 243.606 53.8611 243.47 54.3985C243.331 54.9359 242.916 55.3557 242.381 55.501C241.574 55.7154 240.741 55.2449 240.511 54.4423C240.28 53.6374 240.737 52.7979 241.535 52.5534Z" fill="#222222"/>
</svg>
