<svg width="234" height="234" viewBox="0 0 234 234" fill="none" xmlns="http://www.w3.org/2000/svg">
<rect width="234" height="234" fill="#FDFDFC"/>
<path d="M103.045 89.4913C117.084 89.5948 131.398 89.3654 145.442 89.5358C157.241 89.7802 171.121 92.4797 179.476 101.465C189.465 112.204 188.184 130.776 177.248 140.444C164.089 152.077 146.441 151.075 130.033 151.14C128.998 151.144 127.264 150.889 126.551 150.082C126.986 149.427 128.042 149.181 128.799 149.16C139.347 148.876 148.945 149.903 158.775 144.701C165.135 141.382 169.867 135.615 171.882 128.73C174.894 118.747 172.838 105.985 164.755 98.8874C161.132 95.7048 157.962 94.3223 153.423 92.9933C144.868 90.8951 131.396 91.7105 122.081 91.616L122.079 158.691C122.079 164.327 121.333 185.166 122.554 189.213C124.413 195.376 131.966 192.347 136.231 194.625L136.098 194.947C135.276 195.266 132.351 195.4 131.625 195.343C128.067 195.059 97.6309 195.949 96.3994 194.86L96.3948 194.349C98.5732 192.607 109.938 196.036 109.794 185.764C109.728 181.007 109.821 175.281 109.82 170.453L109.812 139.589L109.811 112.343C109.813 107.865 109.918 103.363 109.801 98.8778C109.635 92.5379 105.527 91.213 100.008 91.0494C98.9686 91.0186 97.061 90.8992 96.3142 90.0833C97.2623 89.313 101.546 89.5033 103.045 89.4913Z" fill="#222222"/>
<path d="M104.757 38.6865C118.747 38.0197 135.628 40.5723 148.973 44.9855C149.197 50.3575 150.125 62.509 149.622 67.2775C147.897 63.6272 147.067 60.2701 144.729 56.7386C135.516 42.8223 117.857 39.089 102.21 41.3249C61.8162 47.0963 50.5527 94.8613 71.1074 125.891C80.5147 139.009 90.275 143.031 104.93 147.469C105.304 148.561 105.376 148.102 105.108 148.99C104.784 149.211 104.427 149.403 104.02 149.342C90.2089 147.27 76.5506 142.486 65.8903 133.47C44.0645 115.228 41.5521 79.7086 60.3447 58.424C72.1478 45.0557 87.4603 39.8211 104.757 38.6865Z" fill="#222222"/>
</svg>
